<svg xmlns="http://www.w3.org/2000/svg" viewBox="0 0 175.469 175.469"><ellipse cx="170.697" cy="104.613" rx="4.772" ry="9.989" fill="#E8EDD1"/><path d="M165.775 118.403c-.87-10.713-6.15-37.015-36.533-48.427-17.56-6.595-28.622-25.354-28.622-45.36v-6.028H40.638l-10.98 55.508-6.54 3.096C10.424 83.202 1.913 95.536.8 109.535l-.703 8.867h165.678z" fill="#F16C21"/><path fill="#E85F21" d="M169.114 93.283l-14.71 11.887v3.964l16.788 5.468"/><path d="M117.43 70.783C95.565 57.977 94.64 33.835 94.972 25.87h-48.06l-9.454 48.225h79.083c1.816 0 2.457-2.394.89-3.312z" fill="#E8EDD1"/><path fill="#E85F21" d="M132.268 42.7h6.53v22.604h-6.53z"/><path d="M119.113 115.397h-82.45v-36.82h82.45v36.82zm-80.86-1.59h79.27V80.165h-79.27v33.642z" fill="#C8541A"/><path fill="#C8541A" d="M41.385 85.398h13.963v1.507H41.385z"/><path fill="#E85F21" d="M127.662 116.48h-1.59V53.207h9.46v1.59h-7.87"/><path fill="#51444C" d="M0 116.606h166.05v3.914H0z"/><circle cx="122.287" cy="131.928" r="24.954" fill="#51444C"/><circle cx="122.287" cy="131.928" r="7.74" fill="#DBDBB9"/><path d="M122.286 143.46c-6.36 0-11.532-5.174-11.532-11.532 0-6.36 5.173-11.533 11.532-11.533 6.36 0 11.533 5.174 11.533 11.533 0 6.358-5.174 11.532-11.534 11.532zm0-21.475c-5.48 0-9.942 4.46-9.942 9.943 0 5.482 4.46 9.942 9.942 9.942s9.943-4.46 9.943-9.942-4.46-9.943-9.944-9.943z" fill="#DBDBB9"/><path d="M150.543 128.474H94.03c0-13.11 10.627-23.736 23.735-23.736h9.042c13.11 0 23.736 10.626 23.736 23.736z" fill="#D3581C"/><circle cx="40.342" cy="125.56" r="29.008" fill="#51444C"/><circle cx="40.561" cy="125.56" r="8.997" fill="#DBDBB9"/><path d="M40.56 138.837c-7.32 0-13.276-5.956-13.276-13.277 0-7.32 5.956-13.276 13.276-13.276 7.322 0 13.278 5.956 13.278 13.276 0 7.32-5.956 13.277-13.278 13.277zm0-24.964c-6.443 0-11.687 5.242-11.687 11.687 0 6.444 5.243 11.688 11.687 11.688 6.445 0 11.688-5.243 11.688-11.688 0-6.444-5.243-11.687-11.688-11.687z" fill="#DBDBB9"/><g><path d="M73.188 121.4H7.495c0-15.238 12.354-27.592 27.592-27.592h10.51c15.238 0 27.59 12.353 27.59 27.592z" fill="#D3581C"/></g></svg>