<svg xmlns="http://www.w3.org/2000/svg" viewBox="0 0 430 430"><path d="M85 270c15.6 0 29.345 7.94 37.417 20H170v-90h-70v-40h70v-30H60l-50 60v50h30v30H10v20h37.582C55.655 277.94 69.4 270 85 270zM69.866 160H70v40H40.718l29.148-40z" fill="#78B9EB"/><path d="M170 130v160h137.582c8.073-12.06 21.816-20 37.418-20 15.6 0 29.345 7.94 37.418 20H420v-20h-20l-10-30h30v-20l-90-20-50-70H170zm94.56 30l28.572 40H200v-40h64.56z" fill="#5A8BB0"/><path fill="#FFF" d="M200 200h93.133l-28.572-40H200"/><path d="M47.582 290H0v30h40.283c-.182-1.643-.283-3.31-.283-5 0-9.252 2.795-17.85 7.582-25zM430 290h-47.582c-8.073-12.06-21.816-20-37.418-20v22.5c12.427 0 22.5 10.073 22.5 22.5s-10.073 22.5-22.5 22.5V360c23.162 0 42.228-17.5 44.717-40H430v-30zM307.582 290H122.417C114.344 277.94 100.6 270 85 270v22.5c12.427 0 22.5 10.073 22.5 22.5S97.427 337.5 85 337.5V360c23.162 0 42.228-17.5 44.717-40h170.566c-.182-1.643-.283-3.31-.283-5 0-9.252 2.795-17.85 7.582-25z" fill="#565659"/><path d="M62.5 315c0-12.427 10.073-22.5 22.5-22.5V270c-15.6 0-29.345 7.94-37.418 20C42.795 297.15 40 305.748 40 315c0 1.69.102 3.357.283 5C42.77 342.5 61.838 360 85 360v-22.5c-12.427 0-22.5-10.073-22.5-22.5z" fill="#616064"/><path d="M62.5 315c0 12.427 10.073 22.5 22.5 22.5v-45c-12.427 0-22.5 10.073-22.5 22.5z" fill="#CDCDD0"/><path d="M85 337.5c12.427 0 22.5-10.073 22.5-22.5S97.427 292.5 85 292.5v45z" fill="#ACABB1"/><path d="M322.5 315c0-12.427 10.073-22.5 22.5-22.5V270c-15.6 0-29.345 7.94-37.418 20-4.787 7.15-7.582 15.748-7.582 25 0 1.69.102 3.357.283 5 2.488 22.5 21.555 40 44.717 40v-22.5c-12.427 0-22.5-10.073-22.5-22.5z" fill="#616064"/><path d="M322.5 315c0 12.427 10.073 22.5 22.5 22.5v-45c-12.427 0-22.5 10.073-22.5 22.5z" fill="#CDCDD0"/><path d="M345 337.5c12.427 0 22.5-10.073 22.5-22.5s-10.073-22.5-22.5-22.5v45z" fill="#ACABB1"/><path fill="#FF5023" d="M10 240h30v30H10z"/><path fill="#FF9811" d="M400 270h20v-30h-30"/><path fill="#FFF" d="M70 160h-.134l-29.148 40H70M100 160h70v40h-70z"/><path fill="#BF3C1A" d="M240 70h30v40h-30zM170 70h40v40h-40z"/><path fill="#FF5023" d="M130 70h40v40h-40zM70 70h30v40H70z"/><path fill="#FF9811" d="M100 70h30v40h-30zM210 70h30v40h-30z"/><path fill="#565659" d="M100 110h30v20h-30zM210 110h30v20h-30z"/></svg>