<svg xmlns="http://www.w3.org/2000/svg" viewBox="0 0 480 480"><path d="M455.258 175.67H0v24.742h480c0-13.664-11.078-24.742-24.742-24.742zM54.426 96.495h229.42c1.39 1.222 2.72 2.52 3.95 3.93-7.5-8.748-18.462-13.827-30.047-13.827H80.567c-13.236 0-25.597 6.615-32.94 17.628 1.936-2.903 4.24-5.48 6.798-7.73zM0 304.33c0 5.466 4.43 9.897 9.897 9.897-5.466 0-9.897-4.432-9.897-9.897zM465.155 314.227c8.2 0 14.845-6.646 14.845-14.845 0 8.198-6.647 14.845-14.845 14.845z" fill="#F2D057"/><path d="M0 200.412v14.845h9.897c8.198 0 14.845 6.647 14.845 14.845s-6.647 14.845-14.845 14.845H0v59.38c0 5.467 4.43 9.898 9.897 9.898 4.813-33.56 33.598-59.382 68.49-59.382s63.678 25.82 68.492 59.382h180.506c4.813-33.56 33.598-59.382 68.49-59.382 34.894 0 63.678 25.82 68.492 59.382h.788c8.198 0 14.845-6.647 14.845-14.845v-54.433h-19.793c-8.198 0-14.845-6.647-14.845-14.845s6.647-14.845 14.845-14.845H480v-14.845H0z" fill="#E9A868"/><path d="M395.876 254.845c-34.893 0-63.677 25.82-68.49 59.382h12.5c8.153-23.06 30.136-39.588 55.99-39.588 25.852 0 47.835 16.526 55.988 39.587h12.5c-4.81-33.56-33.595-59.382-68.488-59.382zM78.388 254.845c-34.893 0-63.677 25.82-68.49 59.382h13.288c8.153-23.06 30.136-39.588 55.99-39.588 25.852 0 47.835 16.526 55.988 39.587h11.714c-4.813-33.56-33.598-59.382-68.49-59.382z" fill="#D6805C"/><path d="M79.175 274.64c-25.853 0-47.836 16.526-55.99 39.587-2.188 6.193-3.39 12.85-3.39 19.794 0 32.796 26.585 59.383 59.38 59.383 32.796 0 59.382-26.586 59.382-59.382 0-6.94-1.203-13.6-3.392-19.793-8.154-23.06-30.137-39.588-55.99-39.588zm39.588 59.38c0 21.865-17.724 39.59-39.588 39.59s-39.588-17.725-39.588-39.59c0-21.863 17.724-39.586 39.588-39.586s39.588 17.723 39.588 39.587zM395.876 274.64c-25.853 0-47.836 16.526-55.99 39.587-2.188 6.193-3.39 12.85-3.39 19.794 0 32.796 26.585 59.383 59.38 59.383s59.38-26.586 59.38-59.382c0-6.94-1.202-13.6-3.39-19.793-8.154-23.06-30.137-39.588-55.99-39.588zm39.588 59.38c0 21.865-17.724 39.59-39.588 39.59s-39.588-17.725-39.588-39.59c0-21.863 17.724-39.586 39.588-39.586s39.588 17.723 39.588 39.587z" fill="#695A69"/><path d="M79.175 294.433c-21.864 0-39.588 17.724-39.588 39.587 0 21.864 17.724 39.588 39.588 39.588s39.588-17.724 39.588-39.588c0-21.863-17.724-39.587-39.588-39.587zM98.97 334.02c0 10.933-8.863 19.795-19.795 19.795-10.932 0-19.794-8.862-19.794-19.794 0-10.93 8.863-19.793 19.795-19.793 10.932 0 19.794 8.862 19.794 19.794z" fill="#DFD0C6"/><circle cx="79.175" cy="334.021" r="19.794" fill="#C8B2A8"/><path d="M395.876 294.433c-21.864 0-39.588 17.724-39.588 39.587 0 21.864 17.724 39.588 39.588 39.588s39.588-17.724 39.588-39.588c0-21.863-17.724-39.587-39.588-39.587zm19.794 39.588c0 10.933-8.862 19.795-19.794 19.795s-19.794-8.862-19.794-19.794c0-10.93 8.862-19.793 19.794-19.793s19.794 8.862 19.794 19.794z" fill="#DFD0C6"/><circle cx="395.876" cy="334.021" r="19.794" fill="#C8B2A8"/><path fill="#E9A868" d="M346.372 175.67l-38.476-49.484M98.97 106.392l-9.898 19.794-16.536 33.072c-5.03 10.06-15.31 16.413-26.556 16.413h48.04l24.743-49.484.09-.178 1.6-3.203c.944-1.886 2.072-3.642 3.356-5.25 5.562-6.968 14.063-11.163 23.2-11.163h145.495l6.39 8.216L289 101.886c-.39-.5-.792-.987-1.206-1.46-1.23-1.41-2.56-2.71-3.95-3.93H54.425c-2.56 2.25-4.86 4.827-6.797 7.73L0 175.67l46.186-69.28H98.97z"/><path fill="#95FFFF" d="M307.895 126.186l38.477 49.484-38.476-49.484M123.808 117.554c-1.284 1.608-2.412 3.364-3.355 5.25l-1.602 3.203 1.603-3.204c.944-1.885 2.07-3.64 3.355-5.25zM94.02 175.67h74.227l-49.484-49.484"/><path fill="#80D7F0" d="M118.763 126.186l49.484 49.484h178.125l-38.477-49.484"/><path d="M72.536 159.257l16.536-33.072-16.536 33.072c-.528 1.058-1.146 2.048-1.784 3.02l-36.094-36.092H32.99l13.196-19.794L0 175.67h45.98c11.246 0 21.527-6.354 26.556-16.413z" fill="#95FFFF"/><path d="M147.01 106.392c-9.138 0-17.638 4.194-23.2 11.163-1.285 1.608-2.412 3.364-3.355 5.25l-1.602 3.204-.09.177h189.133l-9.002-11.578-6.39-8.217H147.01z" fill="#6EB1E2"/><path d="M70.752 162.278c.638-.972 1.256-1.963 1.783-3.02l16.535-33.072H34.66l36.092 36.092z" fill="#80D7F0"/><path fill="#6EB1E2" d="M46.186 106.392L32.99 126.186h56.082l9.897-19.794"/><path d="M445.36 230.103c0 8.198 6.648 14.845 14.846 14.845H480v-29.69h-19.794c-8.198 0-14.845 6.647-14.845 14.845z" fill="#F2D057"/><path d="M24.742 230.103c0-8.198-6.647-14.845-14.845-14.845H0v29.69h9.897c8.198 0 14.845-6.647 14.845-14.845z" fill="#BF515A"/></svg>