<svg xmlns="http://www.w3.org/2000/svg" viewBox="0 0 462.2 462.2"><path d="M449.557 235.01c-6.85-16.07-21.91-28.1-40.51-30.23l-70.54-8.06-37.63-61.16c-9.62-15.64-26.67-25.17-45.03-25.17h-121.5c-31.66 0-59.43 21.15-67.83 51.68l-.95 3.45c-2.66 9.69-7.77 18.32-14.62 25.21-6.85 6.9-15.46 12.05-25.12 14.78-10.44 2.94-17.66 12.47-17.66 23.31v67.883l38.41-8.983c.81-1.88 1.73-3.71 2.75-5.49 9.59-16.61 27.44-26.93 46.6-26.93s37 10.32 46.58 26.93c1.02 1.78 1.95 3.61 2.75 5.49h163.08c.79-1.86 1.7-3.67 2.71-5.43 9.58-16.65 27.45-26.99 46.64-26.99 19.16 0 37 10.32 46.58 26.93 1.02 1.78 1.95 3.61 2.75 5.49h42.82l.27.03 3.12-27.4c.13-1.12.22-2.23.27-3.34.37-7.76-1.06-15.24-3.94-22z" fill="#008DB3"/><path d="M462.2 299.792c0 6.654-5.394 12.048-12.048 12.048h-38.795c.05-.92.08-1.85.08-2.78 0-7.37-1.51-14.65-4.42-21.34l43.142.024c6.65.003 12.04 5.396 12.04 12.048z" fill="#CCC"/><path d="M400.437 309.06c0 .93-.03 1.86-.09 2.78-1.43 22.31-19.98 39.97-42.66 39.97-22.69 0-41.24-17.66-42.67-39.97-.06-.92-.09-1.85-.09-2.78 0-7.75 2.06-15.02 5.66-21.29 7.38-12.83 21.23-21.47 37.1-21.47 15.84 0 29.67 8.62 37.05 21.42 3.63 6.28 5.7 13.57 5.7 21.34zm-25.22 0c0-9.67-7.86-17.54-17.53-17.54-9.68 0-17.54 7.87-17.54 17.54s7.86 17.54 17.54 17.54c9.67 0 17.53-7.87 17.53-17.54z" fill="#666"/><path d="M357.687 291.52c9.67 0 17.53 7.87 17.53 17.54s-7.86 17.54-17.53 17.54c-9.68 0-17.54-7.87-17.54-17.54 0-9.67 7.86-17.54 17.54-17.54z" fill="#E6E6E6"/><path d="M303.927 309.06c0 .93.03 1.87.08 2.78h-154.41c.05-.93.08-1.86.08-2.78 0-7.37-1.51-14.65-4.42-21.34h163.08c-2.9 6.71-4.41 13.98-4.41 21.34z" fill="#CCC"/><path d="M115.967 138.39v58.33h-33.47s3.9-15.83 6.37-24.79l.95-3.45c.5-1.83 1.11-3.6 1.82-5.32 4.62-11.22 13.46-20.04 24.33-24.77zM200.027 134.55v62.17h-69.06v-62.04c1.12-.09 2.25-.13 3.38-.13h65.68zM310.137 196.72h-95.11v-62.17h40.82c9.89 0 19.27 5.24 24.45 13.67l29.84 48.5z" fill="#76CDCE"/><path d="M138.587 311.84c-1.43 22.31-19.98 39.97-42.66 39.97-22.69 0-41.24-17.66-42.67-39.97-.06-.92-.09-1.85-.09-2.78 0-7.77 2.07-15.06 5.69-21.34 7.39-12.8 21.22-21.42 37.07-21.42 15.84 0 29.67 8.62 37.05 21.42 3.63 6.28 5.7 13.57 5.7 21.34 0 .93-.03 1.86-.09 2.78zm-25.12-2.78c0-9.67-7.87-17.54-17.54-17.54-9.68 0-17.54 7.87-17.54 17.54s7.86 17.54 17.54 17.54c9.67 0 17.54-7.87 17.54-17.54z" fill="#666"/><path d="M95.927 291.52c9.67 0 17.54 7.87 17.54 17.54s-7.87 17.54-17.54 17.54c-9.68 0-17.54-7.87-17.54-17.54 0-9.67 7.86-17.54 17.54-17.54z" fill="#E6E6E6"/><path d="M42.167 309.06c0 .93.03 1.86.08 2.78H12.06C5.4 311.84 0 306.44 0 299.78s5.4-12.06 12.06-12.06h34.517c-2.9 6.7-4.41 13.97-4.41 21.34zM256.236 229.63h-15.76c-3.313 0-6-2.685-6-6s2.687-6 6-6h15.76c3.313 0 6 2.687 6 6s-2.686 6-6 6zM148.017 229.63h-15.76c-3.313 0-6-2.685-6-6s2.687-6 6-6h15.76c3.313 0 6 2.687 6 6s-2.687 6-6 6z" fill="#CCC"/><path d="M453.497 257.01h-12.05c-12.15 0-22-9.85-22-22h30.11c3.31 7.235 4.81 14.36 3.94 22z" fill="#FFF"/><path fill="#96E0DE" d="M200.027 134.68v62.04h-7.03l-62.03-62.04M310.137 196.72h-32.94l-62.17-62.17h40.82c9.89 0 19.27 5.24 24.45 13.67l29.84 48.5zM115.967 138.39v49.1l-24.33-24.33c4.62-11.22 13.46-20.04 24.33-24.77z"/></svg>