<svg xmlns="http://www.w3.org/2000/svg" viewBox="0 0 480 480"><path d="M91.43 112h335.233l13.33 22.857 39.99 68.57-57.368-98.37C418.52 98.032 411 93.713 402.87 93.713H22.857c-11.058 0-20.28 7.853-22.4 18.286H91.43zM479.982 203.428H0v22.858h480v-22.858M0 322.286c0 5.05 4.093 9.143 9.143 9.143-5.05-.002-9.143-4.095-9.143-9.144z" fill="#E17277"/><path d="M36.57 185.143v-54.857c0-1.7.25-3.337.684-4.898.05-.178.084-.363.14-.54.217-.7.49-1.374.785-2.035 2.265-5.047 6.748-8.867 12.212-10.24.635-.16 1.28-.286 1.94-.377.828-.115 1.666-.194 2.524-.194H0v91.428h54.857c-10.1-.002-18.286-8.188-18.286-18.287zM0 240h9.143c7.574 0 13.714 6.14 13.714 13.714 0 7.573-6.14 13.714-13.714 13.714H0v54.857c0 5.05 4.094 9.143 9.143 9.143h9.143c0-30.297 24.56-54.857 54.857-54.857S128 301.133 128 331.43h219.43c0-30.297 24.56-54.857 54.856-54.857 30.297 0 54.857 24.562 54.857 54.858h9.142c7.574 0 13.714-6.14 13.714-13.714v-50.287h-18.286c-7.574 0-13.714-6.14-13.714-13.713 0-7.574 6.14-13.714 13.714-13.714H480v-13.714H0V240z" fill="#BF515A"/><path d="M73.143 276.57c-30.297 0-54.857 24.562-54.857 54.858 0 30.297 24.56 54.857 54.857 54.857S128 361.725 128 331.428c0-30.296-24.56-54.857-54.857-54.857zm0 91.43c-20.198 0-36.57-16.374-36.57-36.572 0-20.198 16.373-36.57 36.57-36.57 20.198 0 36.57 16.373 36.57 36.57 0 20.198-16.372 36.572-36.57 36.572zM402.286 276.57c-30.297 0-54.857 24.562-54.857 54.858 0 30.297 24.56 54.857 54.856 54.857 30.297 0 54.857-24.56 54.857-54.857 0-30.296-24.56-54.857-54.857-54.857zm0 91.43c-20.198 0-36.572-16.374-36.572-36.572 0-20.198 16.374-36.57 36.572-36.57 20.198 0 36.57 16.373 36.57 36.57 0 20.198-16.372 36.572-36.57 36.572z" fill="#695A69"/><path d="M73.143 294.857c-20.198 0-36.57 16.374-36.57 36.57 0 20.2 16.373 36.573 36.57 36.573 20.198 0 36.57-16.374 36.57-36.572 0-20.197-16.372-36.57-36.57-36.57zm0 54.857c-10.1 0-18.286-8.187-18.286-18.286s8.187-18.286 18.286-18.286c10.1 0 18.286 8.187 18.286 18.286s-8.188 18.286-18.287 18.286z" fill="#DFD0C6"/><circle cx="73.143" cy="331.429" r="18.286" fill="#C8B2A8"/><path d="M402.286 294.857c-20.198 0-36.572 16.374-36.572 36.57 0 20.2 16.374 36.573 36.572 36.573 20.198 0 36.57-16.374 36.57-36.572 0-20.197-16.372-36.57-36.57-36.57zm0 54.857c-10.1 0-18.286-8.187-18.286-18.286s8.187-18.286 18.286-18.286c10.1 0 18.286 8.187 18.286 18.286s-8.187 18.286-18.286 18.286z" fill="#DFD0C6"/><circle cx="402.286" cy="331.429" r="18.286" fill="#C8B2A8"/><path d="M448 253.714c0 7.573 6.14 13.714 13.714 13.714H480V240h-18.286C454.14 240 448 246.14 448 253.714z" fill="#F2D057"/><path d="M22.857 253.714c0-7.574-6.14-13.714-13.714-13.714H0v27.428h9.143c7.573 0 13.714-6.14 13.714-13.714z" fill="#944851"/><path fill="#95FFFF" d="M338.286 203.428h68.57l-68.57-68.57M214.857 203.428h68.572l-68.573-68.57M37.255 125.387c.05-.178.084-.363.14-.54-.056.177-.09.362-.14.54zM52.334 112.194C53.16 112.08 54 112 54.857 112c-.858 0-1.696.08-2.523.194zM91.43 203.428H160l-68.57-68.57M50.393 112.572c-5.464 1.374-9.947 5.193-12.213 10.24 2.266-5.047 6.75-8.866 12.213-10.24zM36.57 185.143c0 10.1 8.188 18.286 18.287 18.286-10.098-.002-18.286-8.19-18.286-18.287z"/><path fill="#944851" d="M214.857 112H196.57V203.427h18.287v-68.57M338.286 112H320V203.427h18.286v-68.57M91.43 112H54.856c-.86 0-1.696.08-2.523.194-.66.09-1.306.218-1.94.377-5.465 1.375-9.948 5.194-12.214 10.24-.297.662-.57 1.337-.786 2.037-.055.176-.09.36-.14.54-.433 1.56-.682 3.198-.682 4.897v54.857c0 10.1 8.188 18.287 18.286 18.287h36.57V112z"/><path fill="#6EB1E2" d="M196.57 134.857V112H91.43v22.857M214.857 112H320v22.857H214.857zM439.993 134.857L426.663 112h-88.377v22.857"/><path fill="#80D7F0" d="M91.43 134.857l68.57 68.57h36.571v-68.57M214.857 134.857l68.572 68.57H320v-68.57M338.286 134.857l68.57 68.57h73.126l-39.99-68.57"/></svg>