<svg xmlns="http://www.w3.org/2000/svg" viewBox="0 0 480 480"><path d="M240 77.79c0-1.105-.895-2-2-2h-84.42c-1.106 0-2 .895-2 2v48.526H240V77.79zm-12.632 23.263h-12.632v12.63h-12.632v-12.63h-12.632v12.63H176.84v-12.63h-12.632V88.42h12.632v12.633h12.632V88.42h12.632v12.633h12.632V88.42h12.632v12.633zM63.158 240H75.79v12.632H63.158zM240 240h12.632v12.632H240zM164.21 240h12.633v12.632H164.21zM189.474 240h12.632v12.632h-12.632zM214.737 240h12.632v12.632h-12.633zM113.684 240h12.632v12.632h-12.632zM88.42 240h12.633v12.632H88.42zM138.947 240h12.632v12.632h-12.633zM341.053 240h12.632v12.632h-12.632z" fill="#E9A868"/><path d="M442.105 271.58c0-2.22.4-4.34 1.1-6.317h-1.1V252.63h-12.632v12.633H416.84V252.63h-12.63v12.633h-12.633V252.63h-12.632v12.633h-12.632V252.63H353.68v12.633h-12.63V252.63h-12.633v12.633h-12.632V252.63h-12.632v12.633H290.52V252.63h-12.63v12.633h-12.633V252.63h-12.632v12.633H240V252.63h-12.632v12.633h-12.632V252.63h-12.632v12.633h-12.632V252.63H176.84v12.633h-12.632V252.63h-12.632v12.633h-12.632V252.63h-12.632v12.633H113.68V252.63h-12.632v12.633H88.42V252.63H75.79v12.633H63.157V252.63H50.526v12.633h-12.63V252.63H25.262v1.102c7.354 2.604 12.632 9.6 12.632 17.846 0 10.464-8.484 18.948-18.947 18.948H0v44.526c0 3.313 2.686 6 6 6h19.263c0-34.88 28.277-63.158 63.158-63.158 34.882 0 63.16 28.277 63.16 63.158h176.84c0-34.88 28.278-63.158 63.16-63.158 34.88 0 63.157 28.277 63.157 63.158H480v-50.526h-18.947c-10.464 0-18.948-8.484-18.948-18.947z" fill="#E9A868"/><path fill="#E9A868" d="M366.316 240h12.632v12.632h-12.632zM391.58 240h12.63v12.632h-12.63zM290.526 240h12.632v12.632h-12.632zM467.368 240H480v12.632h-12.632zM315.79 240h12.63v12.632h-12.63zM37.895 240h12.632v12.632H37.895zM265.263 240h12.632v12.632h-12.632zM18.947 252.632h6.316V240h-12.63v12.632M454.737 253.733c1.978-.7 4.098-1.1 6.316-1.1h-6.316v1.1zM416.842 240h12.632v12.632h-12.632zM442.105 240h12.632v12.632h-12.632z"/><path d="M476 214.737H4c-2.21 0-4 1.79-4 4V240H480v-21.263c0-2.21-1.79-4-4-4z" fill="#F2D057"/><path d="M391.58 277.895c-34.882 0-63.16 28.277-63.16 63.158 0 34.88 28.278 63.158 63.16 63.158 34.88 0 63.157-28.276 63.157-63.157 0-34.882-28.277-63.158-63.158-63.158zm0 113.684c-27.906 0-50.527-22.622-50.527-50.527s22.62-50.526 50.526-50.526c27.904 0 50.525 22.62 50.525 50.526 0 27.905-22.62 50.526-50.526 50.526z" fill="#695A69"/><path d="M391.58 290.526c-27.906 0-50.527 22.62-50.527 50.526 0 27.905 22.62 50.526 50.526 50.526 27.904 0 50.525-22.62 50.525-50.526 0-27.904-22.62-50.526-50.526-50.526zm0 82.106c-17.442 0-31.58-14.138-31.58-31.58 0-17.44 14.138-31.578 31.58-31.578 17.44 0 31.578 14.138 31.578 31.58 0 17.44-14.138 31.578-31.58 31.578z" fill="#DFD0C6"/><circle cx="391.579" cy="341.053" r="31.579" fill="#C8B2A8"/><path d="M88.42 277.895c-34.88 0-63.157 28.277-63.157 63.158 0 34.88 28.277 63.158 63.158 63.158 34.882 0 63.16-28.276 63.16-63.157 0-34.882-28.278-63.158-63.16-63.158zm0 113.684c-27.904 0-50.525-22.622-50.525-50.527s22.62-50.526 50.526-50.526 50.527 22.62 50.527 50.526c0 27.905-22.62 50.526-50.526 50.526z" fill="#695A69"/><path d="M88.42 290.526c-27.904 0-50.525 22.62-50.525 50.526 0 27.905 22.62 50.526 50.526 50.526s50.527-22.62 50.527-50.526c0-27.904-22.62-50.526-50.526-50.526zm0 82.106c-17.44 0-31.578-14.138-31.578-31.58 0-17.44 14.138-31.578 31.58-31.578 17.44 0 31.578 14.138 31.578 31.58 0 17.44-14.138 31.578-31.58 31.578z" fill="#DFD0C6"/><circle cx="88.421" cy="341.053" r="31.579" fill="#C8B2A8"/><path d="M115.496 130.122c1.304-.336 2.615-.65 3.932-.942-1.318.292-2.63.606-3.932.942zM132.472 127.028c.542-.06 1.085-.116 1.63-.168-.545.05-1.087.11-1.63.168zM108.648 132.105c.71-.23 1.42-.458 2.137-.674-.715.217-1.426.446-2.137.675zM112.153 131.035c.714-.206 1.426-.416 2.144-.61-.718.194-1.43.404-2.144.61zM128.692 127.497c.56-.08 1.122-.152 1.684-.223-.562.07-1.124.144-1.684.223zM124.96 128.08c.572-.1 1.145-.188 1.718-.28-.573.092-1.146.18-1.717.28zM121.272 128.775c.58-.12 1.167-.226 1.75-.337-.584.11-1.17.218-1.75.337zM95.017 137.427c.783-.363 1.573-.71 2.364-1.056-.79.347-1.58.694-2.363 1.057zM105.175 133.282c.713-.254 1.428-.505 2.147-.746-.72.24-1.434.492-2.147.746zM249.468 126.885c.928.154 1.847.334 2.754.557.678.167 1.35.348 2.014.552.694.21 1.37.455 2.048.703.783.29 1.573.572 2.334.913.29.13.567.288.854.426 3.3 1.58 6.38 3.61 9.125 6.09l.028.022c.97.882 1.903 1.816 2.788 2.8 1.328 1.478 2.577 3.04 3.687 4.72-6.95-10.773-18.914-17.352-31.827-17.352 1.542 0 3.065.122 4.573.305.545.068 1.082.174 1.622.265zM101.74 134.563c.724-.283 1.45-.558 2.178-.826-.73.268-1.454.544-2.177.826zM98.354 135.946c.74-.316 1.487-.62 2.235-.923-.75.3-1.494.606-2.236.923zM136.327 126.673c.51-.04 1.018-.08 1.53-.112-.512.033-1.02.075-1.53.113zM145.428 126.316h-.01.012M80.818 199.265l.2-.594c4.926-14.687 13.496-27.396 24.493-37.275.105-.094.212-.183.316-.276.88-.784 1.777-1.55 2.688-2.295.207-.17.415-.337.623-.505.867-.698 1.747-1.378 2.64-2.043.178-.133.355-.27.535-.4 2.16-1.583 4.39-3.067 6.688-4.446.18-.107.362-.21.542-.315.946-.56 1.903-1.1 2.87-1.624.287-.154.574-.306.862-.457.92-.484 1.85-.952 2.787-1.404.263-.127.522-.257.785-.38 2.387-1.122 4.828-2.14 7.32-3.044.29-.106.585-.203.878-.306.943-.33 1.892-.648 2.848-.948.385-.12.77-.237 1.155-.352.92-.274 1.848-.532 2.78-.777.357-.094.713-.192 1.072-.282 2.547-.633 5.132-1.155 7.75-1.56.388-.06.778-.108 1.166-.162.93-.13 1.865-.25 2.803-.35.455-.05.91-.095 1.366-.137.928-.084 1.86-.153 2.795-.21.416-.024.83-.054 1.247-.073 1.334-.06 2.673-.1 4.02-.1h.002-72.193c.88-.44 1.765-.862 2.654-1.28-22.026 10.327-40.79 27.27-53.27 49.11l-15.975 27.96h67.863c-8.122 0-14.133-7.557-12.307-15.472zM140.348 126.436c.428-.018.855-.043 1.284-.057-.43.013-.856.038-1.284.056z" fill="#E9A868"/><path d="M126.845 147.25c2.387-1.122 4.83-2.137 7.32-3.043-2.49.905-4.932 1.92-7.32 3.043zM160.025 139.048c1.334-.06 2.673-.1 4.02-.1-1.347 0-2.685.04-4.02.1zM135.043 143.9c.943-.33 1.892-.647 2.848-.947-.955.3-1.904.617-2.847.948zM151.814 139.82c.93-.132 1.865-.25 2.803-.352-.938.102-1.872.22-2.803.35zM139.046 142.6c.92-.274 1.848-.53 2.78-.776-.932.245-1.86.503-2.78.777zM123.274 149.033c.92-.484 1.85-.952 2.787-1.404-.937.452-1.866.92-2.786 1.403zM142.898 141.543c2.547-.634 5.132-1.156 7.75-1.56-2.618.404-5.203.926-7.75 1.56zM102.518 164.21c.976-.963 1.975-1.9 2.993-2.815-10.996 9.88-19.565 22.588-24.493 37.276l-.2.595c-1.825 7.915 4.186 15.472 12.31 15.472h58.452l-49.775-49.772c.244-.246.466-.512.713-.755zM112.312 155.876c2.16-1.582 4.39-3.066 6.688-4.445-2.298 1.38-4.528 2.864-6.688 4.446zM109.136 158.32c.867-.698 1.747-1.378 2.64-2.043-.893.665-1.773 1.345-2.64 2.043zM105.826 161.12c.88-.784 1.777-1.55 2.688-2.295-.91.747-1.807 1.51-2.688 2.294zM119.542 151.115c.946-.56 1.903-1.1 2.87-1.624-.967.525-1.924 1.066-2.87 1.625zM155.984 139.332c.928-.085 1.86-.154 2.795-.21-.936.056-1.868.125-2.796.21z" fill="#95FFFF"/><path d="M164.047 138.947h107.365c-.885-.984-1.816-1.918-2.788-2.8l-.028-.023c-2.745-2.48-5.826-4.51-9.125-6.09-.286-.136-.563-.295-.853-.425-.762-.342-1.55-.624-2.334-.914-.678-.248-1.354-.493-2.048-.703-.663-.204-1.335-.385-2.014-.552-.906-.22-1.825-.4-2.753-.556-.54-.09-1.076-.197-1.622-.264-1.508-.184-3.03-.305-4.573-.305H145.418c-1.265 0-2.526.023-3.785.063-.43.013-.856.04-1.284.057-.833.035-1.664.073-2.493.125-.51.032-1.02.074-1.53.112-.742.057-1.484.116-2.225.186-.544.052-1.087.11-1.63.168-.7.076-1.398.157-2.096.246-.562.07-1.123.145-1.684.223-.673.095-1.344.198-2.014.304-.573.09-1.147.18-1.717.278-.647.112-1.292.236-1.937.36-.584.11-1.17.216-1.75.336-.617.127-1.23.268-1.844.405-1.318.292-2.63.605-3.933.94-.4.104-.8.2-1.198.305-.72.193-1.432.403-2.145.61-.456.13-.914.258-1.368.395-.716.216-1.426.445-2.137.674-.443.143-.886.283-1.326.43-.72.242-1.434.492-2.147.747-.42.15-.84.3-1.257.456-.728.27-1.454.544-2.177.826-.385.15-.768.305-1.152.46-.747.3-1.493.605-2.234.922-.326.14-.65.284-.974.426-.79.346-1.58.693-2.364 1.056-.17.08-.34.163-.51.242-.888.417-1.775.84-2.653 1.278h72.192z" fill="#F2D057"/><path d="M164.048 138.947h-.004c-1.346 0-2.684.04-4.02.1-.416.02-.83.05-1.246.075-.935.056-1.867.124-2.795.21-.456.042-.912.087-1.366.136-.938.102-1.872.22-2.803.35-.388.056-.778.105-1.165.164-2.62.405-5.205.926-7.752 1.56-.36.09-.715.188-1.072.282-.932.245-1.86.502-2.78.777-.386.116-.77.233-1.154.353-.956.3-1.905.616-2.848.948-.293.104-.587.2-.88.307-2.49.905-4.93 1.92-7.318 3.043-.263.124-.523.254-.784.38-.938.452-1.867.92-2.787 1.404-.288.152-.575.304-.86.458-.968.523-1.925 1.065-2.872 1.624-.18.106-.363.208-.542.316-2.296 1.38-4.527 2.863-6.687 4.445-.18.132-.357.268-.536.4-.892.665-1.772 1.346-2.64 2.044-.207.17-.415.336-.622.506-.91.747-1.807 1.51-2.688 2.294-.104.093-.21.183-.315.276-1.018.915-2.018 1.852-2.993 2.815h184.4l-10.744-18.8c-.34-.596-.7-1.176-1.075-1.743-1.11-1.68-2.358-3.24-3.686-4.72H164.048z" fill="#6EB1E2"/><path d="M102.518 164.21c-.247.242-.47.51-.712.754l49.774 49.772h164.21l-28.87-50.526H102.518z" fill="#80D7F0"/><path fill="#695A69" d="M164.21 88.42h12.633v12.633H164.21zM176.842 101.053h12.632v12.63h-12.632zM189.474 88.42h12.632v12.633h-12.632zM214.737 88.42h12.632v12.633h-12.633zM202.105 101.053h12.632v12.63h-12.632zM0 240h12.632v12.632H0zM25.263 253.733v-1.1h-6.316c2.218 0 4.338.4 6.316 1.1zM25.263 240h12.632v12.632H25.263zM50.526 240h12.632v12.632H50.526zM37.895 252.632h12.632v12.632H37.895zM63.158 252.632H75.79v12.632H63.158zM75.79 240h12.63v12.632H75.79zM88.42 252.632h12.633v12.632H88.42zM101.053 240h12.632v12.632h-12.632zM126.316 240h12.632v12.632h-12.632zM113.684 252.632h12.632v12.632h-12.632zM138.947 252.632h12.632v12.632h-12.633zM151.58 240h12.63v12.632h-12.63zM164.21 252.632h12.633v12.632H164.21zM176.842 240h12.632v12.632h-12.632zM202.105 240h12.632v12.632h-12.632zM189.474 252.632h12.632v12.632h-12.632zM214.737 252.632h12.632v12.632h-12.633zM227.368 240H240v12.632h-12.632zM240 252.632h12.632v12.632H240zM252.632 240h12.632v12.632h-12.632zM277.895 240h12.632v12.632h-12.632zM265.263 252.632h12.632v12.632h-12.632zM290.526 252.632h12.632v12.632h-12.632zM303.158 240h12.632v12.632h-12.632zM315.79 252.632h12.63v12.632h-12.63zM328.42 240h12.633v12.632H328.42zM353.684 240h12.632v12.632h-12.632zM341.053 252.632h12.632v12.632h-12.632zM366.316 252.632h12.632v12.632h-12.632zM378.947 240h12.632v12.632h-12.633zM391.58 252.632h12.63v12.632h-12.63zM404.21 240h12.633v12.632H404.21zM429.474 240h12.632v12.632h-12.632zM416.842 252.632h12.632v12.632h-12.632zM442.105 252.632v12.632h1.1c1.905-5.376 6.155-9.626 11.53-11.53v-1.1h-12.63zM461.053 252.632h6.315V240h-12.63v12.632"/><path d="M461.053 252.632c-2.218 0-4.338.4-6.316 1.1-5.376 1.905-9.627 6.156-11.53 11.53-.7 1.98-1.1 4.1-1.1 6.317 0 10.463 8.483 18.947 18.946 18.947H480v-37.895h-18.947z" fill="#F2D057"/><path d="M37.895 271.58c0-8.247-5.278-15.243-12.632-17.847-1.978-.7-4.098-1.1-6.316-1.1H0v37.894h18.947c10.464 0 18.948-8.485 18.948-18.948z" fill="#BF515A"/></svg>