<?xml version="1.0" encoding="iso-8859-1"?>
<!-- Generator: Adobe Illustrator 19.0.0, SVG Export Plug-In . SVG Version: 6.00 Build 0)  -->
<svg version="1.1" id="Capa_1" xmlns="http://www.w3.org/2000/svg" xmlns:xlink="http://www.w3.org/1999/xlink" x="0px" y="0px"
	 viewBox="0 0 480 480" style="enable-background:new 0 0 480 480;" xml:space="preserve">
<g>
	<path style="fill:#F2D057;" d="M455.258,175.67H346.372H168.247H94.021H45.98H0v24.742h480
		C480,186.748,468.922,175.67,455.258,175.67z"/>
	<path style="fill:#F2D057;" d="M54.426,96.495h229.419c1.39,1.222,2.721,2.521,3.951,3.93
		c-7.499-8.748-18.462-13.827-30.047-13.827H80.568c-13.236,0-25.597,6.615-32.939,17.628l0,0
		C49.564,101.323,51.867,98.747,54.426,96.495z"/>
	<path style="fill:#F2D057;" d="M0,304.33c0,5.466,4.431,9.897,9.897,9.897C4.431,314.227,0,309.795,0,304.33z"/>
	<path style="fill:#F2D057;" d="M465.155,314.227c8.199,0,14.845-6.646,14.845-14.845C480,307.58,473.353,314.227,465.155,314.227z"
		/>
	<path style="fill:#E9A868;" d="M0,200.412v14.845h9.897c8.198,0,14.845,6.647,14.845,14.845s-6.647,14.845-14.845,14.845H0v59.381
		c0,5.466,4.431,9.897,9.897,9.897c4.813-33.56,33.598-59.382,68.491-59.382s63.677,25.821,68.491,59.382h180.507
		c4.813-33.56,33.598-59.382,68.491-59.382c34.893,0,63.677,25.821,68.491,59.382h0.788c8.198,0,14.845-6.647,14.845-14.845v-54.433
		h-19.794c-8.198,0-14.845-6.647-14.845-14.845s6.647-14.845,14.845-14.845H480v-14.845H0z"/>
	<path style="fill:#D6805C;" d="M395.876,254.845c-34.893,0-63.677,25.821-68.491,59.382h12.501
		c8.153-23.061,30.136-39.588,55.989-39.588c25.853,0,47.836,16.527,55.989,39.588h12.501
		C459.554,280.667,430.769,254.845,395.876,254.845z"/>
	<path style="fill:#D6805C;" d="M78.388,254.845c-34.893,0-63.677,25.821-68.491,59.382h13.289
		c8.153-23.061,30.136-39.588,55.989-39.588c25.853,0,47.836,16.527,55.989,39.588h11.714
		C142.065,280.667,113.28,254.845,78.388,254.845z"/>
	<path style="fill:#695A69;" d="M79.175,274.639c-25.853,0-47.836,16.527-55.989,39.588c-2.189,6.193-3.392,12.851-3.392,19.794
		c0,32.795,26.586,59.382,59.381,59.382c32.796,0,59.382-26.586,59.382-59.382c0-6.942-1.203-13.601-3.392-19.794
		C127.011,291.166,105.028,274.639,79.175,274.639z M118.763,334.021c0,21.864-17.724,39.588-39.588,39.588
		c-21.864,0-39.588-17.724-39.588-39.588c0-21.864,17.724-39.587,39.588-39.587C101.039,294.433,118.763,312.157,118.763,334.021z"
		/>
	<path style="fill:#695A69;" d="M395.876,274.639c-25.853,0-47.836,16.527-55.989,39.588c-2.189,6.193-3.392,12.851-3.392,19.794
		c0,32.795,26.586,59.382,59.381,59.382c32.795,0,59.381-26.586,59.381-59.382c0-6.942-1.203-13.601-3.392-19.794
		C443.712,291.166,421.729,274.639,395.876,274.639z M435.464,334.021c0,21.864-17.724,39.588-39.588,39.588
		c-21.864,0-39.588-17.724-39.588-39.588c0-21.864,17.724-39.587,39.588-39.587C417.74,294.433,435.464,312.157,435.464,334.021z"/>
	<path style="fill:#DFD0C6;" d="M79.175,294.433c-21.864,0-39.588,17.724-39.588,39.587c0,21.864,17.724,39.588,39.588,39.588
		c21.864,0,39.588-17.724,39.588-39.588C118.763,312.157,101.039,294.433,79.175,294.433z M98.969,334.021
		c0,10.932-8.862,19.794-19.794,19.794c-10.932,0-19.794-8.862-19.794-19.794c0-10.932,8.862-19.794,19.794-19.794
		C90.107,314.227,98.969,323.089,98.969,334.021z"/>
	<circle style="fill:#C8B2A8;" cx="79.175" cy="334.021" r="19.794"/>
	<path style="fill:#DFD0C6;" d="M395.876,294.433c-21.864,0-39.588,17.724-39.588,39.587c0,21.864,17.724,39.588,39.588,39.588
		c21.864,0,39.588-17.724,39.588-39.588C435.464,312.157,417.74,294.433,395.876,294.433z M415.67,334.021
		c0,10.932-8.862,19.794-19.794,19.794c-10.932,0-19.794-8.862-19.794-19.794c0-10.932,8.862-19.794,19.794-19.794
		C406.808,314.227,415.67,323.089,415.67,334.021z"/>
	<circle style="fill:#C8B2A8;" cx="395.876" cy="334.021" r="19.794"/>
	<polygon style="fill:#E9A868;" points="346.372,175.67 307.896,126.186 307.896,126.186 	"/>
	<path style="fill:#E9A868;" d="M98.969,106.392l-9.897,19.794l-16.536,33.072c-5.029,10.059-15.31,16.413-26.556,16.413h48.041
		l24.742-49.485l0,0l0.089-0.178l1.602-3.203c0.943-1.886,2.071-3.642,3.355-5.25c5.563-6.968,14.064-11.163,23.2-11.163h0.001
		h145.495l6.389,8.216l-9.892-12.722c-0.389-0.5-0.792-0.987-1.206-1.461c-1.23-1.409-2.56-2.708-3.951-3.93H54.426
		c-2.559,2.252-4.861,4.828-6.797,7.732l0,0L0,175.67l46.186-69.279H98.969z"/>
	<polygon style="fill:#95FFFF;" points="307.895,126.186 346.372,175.67 307.896,126.186 	"/>
	<path style="fill:#95FFFF;" d="M123.808,117.554c-1.284,1.608-2.412,3.364-3.355,5.25l-1.602,3.203l1.602-3.204
		C121.397,120.918,122.524,119.162,123.808,117.554z"/>
	<polygon style="fill:#95FFFF;" points="94.021,175.67 168.247,175.67 118.763,126.186 	"/>
	<polygon style="fill:#80D7F0;" points="118.763,126.186 118.763,126.186 168.247,175.67 346.372,175.67 307.895,126.186 	"/>
	<path style="fill:#95FFFF;" d="M72.536,159.257l16.536-33.072h-0.001L72.536,159.257c-0.528,1.058-1.146,2.048-1.784,3.021
		l-36.094-36.093h-1.667l13.195-19.794L0,175.67h45.98C57.226,175.67,67.507,169.316,72.536,159.257z"/>
	<path style="fill:#6EB1E2;" d="M147.01,106.392L147.01,106.392c-9.138,0-17.638,4.194-23.201,11.163
		c-1.284,1.608-2.411,3.364-3.354,5.25l-1.602,3.204l-0.089,0.178h189.132h0.001h0h0l-9.003-11.578l-6.389-8.216H147.01z"/>
	<path style="fill:#80D7F0;" d="M70.752,162.278c0.638-0.972,1.256-1.963,1.783-3.02l16.535-33.072H34.659L70.752,162.278z"/>
	<polygon style="fill:#6EB1E2;" points="46.186,106.392 32.991,126.186 34.659,126.186 89.071,126.186 89.072,126.186 
		98.969,106.392 	"/>
	<path style="fill:#F2D057;" d="M445.361,230.103c0,8.198,6.647,14.845,14.845,14.845H480v-29.691h-19.794
		C452.008,215.258,445.361,221.905,445.361,230.103z"/>
	<path style="fill:#BF515A;" d="M24.742,230.103c0-8.198-6.647-14.845-14.845-14.845H0v29.691h9.897
		C18.095,244.948,24.742,238.301,24.742,230.103z"/>
</g>
<g>
</g>
<g>
</g>
<g>
</g>
<g>
</g>
<g>
</g>
<g>
</g>
<g>
</g>
<g>
</g>
<g>
</g>
<g>
</g>
<g>
</g>
<g>
</g>
<g>
</g>
<g>
</g>
<g>
</g>
</svg>
