<?xml version="1.0" encoding="iso-8859-1"?>
<!-- Generator: Adobe Illustrator 19.0.0, SVG Export Plug-In . SVG Version: 6.00 Build 0)  -->
<svg version="1.1" id="Capa_1" xmlns="http://www.w3.org/2000/svg" xmlns:xlink="http://www.w3.org/1999/xlink" x="0px" y="0px"
	 viewBox="0 0 480 480" style="enable-background:new 0 0 480 480;" xml:space="preserve">
<g>
	<path style="fill:#E17277;" d="M91.429,112h86.857h18.286h18.286H320h18.286h88.377l13.33,22.857l39.989,68.571l-57.367-98.372
		C418.519,98.033,411,93.714,402.87,93.714H22.857c-11.058,0-20.281,7.853-22.399,18.286h54.399H91.429z"/>
	<polygon style="fill:#E17277;" points="479.982,203.428 406.857,203.428 338.286,203.428 320,203.428 283.429,203.428 
		214.857,203.428 196.571,203.428 178.286,203.428 160,203.428 91.429,203.428 54.857,203.428 0,203.428 0,226.286 480,226.286 
		480,203.428 	"/>
	<path style="fill:#E17277;" d="M0,322.286c0,5.05,4.093,9.143,9.143,9.143C4.094,331.428,0,327.335,0,322.286z"/>
	<path style="fill:#BF515A;" d="M36.571,185.143v-54.857c0-1.699,0.25-3.337,0.683-4.898c0.05-0.178,0.084-0.363,0.139-0.539
		c0.218-0.7,0.49-1.375,0.786-2.036c2.266-5.047,6.749-8.867,12.213-10.24c0.635-0.16,1.281-0.286,1.941-0.377
		c0.827-0.115,1.665-0.194,2.523-0.194H0.458H0v4.571v86.857h54.857C44.758,203.428,36.571,195.242,36.571,185.143z"/>
	<path style="fill:#BF515A;" d="M0,240h9.143c7.574,0,13.714,6.141,13.714,13.714c0,7.573-6.141,13.714-13.714,13.714H0v54.857
		c0,5.049,4.094,9.143,9.143,9.143h9.143c0-30.297,24.56-54.857,54.857-54.857c30.297,0,54.857,24.561,54.857,54.857h219.429
		c0-30.297,24.56-54.857,54.857-54.857c30.297,0,54.857,24.561,54.857,54.857h8.416h0.727c7.574,0,13.714-6.141,13.714-13.714
		v-0.727v-49.559h-18.286c-7.574,0-13.714-6.141-13.714-13.714c0-7.574,6.141-13.714,13.714-13.714H480v-13.714H0V240z"/>
	<path style="fill:#695A69;" d="M73.143,276.571c-30.297,0-54.857,24.561-54.857,54.857c0,30.297,24.56,54.857,54.857,54.857
		c30.297,0,54.857-24.56,54.857-54.857C128,301.132,103.44,276.571,73.143,276.571z M73.143,368
		c-20.198,0-36.571-16.374-36.571-36.572c0-20.198,16.374-36.571,36.571-36.571c20.198,0,36.571,16.374,36.571,36.571
		C109.714,351.626,93.341,368,73.143,368z"/>
	<path style="fill:#695A69;" d="M402.286,276.571c-30.297,0-54.857,24.561-54.857,54.857c0,30.297,24.56,54.857,54.857,54.857
		c30.297,0,54.857-24.56,54.857-54.857C457.143,301.132,432.582,276.571,402.286,276.571z M402.286,368
		c-20.198,0-36.572-16.374-36.572-36.572c0-20.198,16.374-36.571,36.572-36.571c20.198,0,36.571,16.374,36.571,36.571
		C438.857,351.626,422.484,368,402.286,368z"/>
	<path style="fill:#DFD0C6;" d="M73.143,294.857c-20.198,0-36.571,16.374-36.571,36.571c0,20.198,16.374,36.572,36.571,36.572
		c20.198,0,36.571-16.374,36.571-36.572C109.714,311.231,93.341,294.857,73.143,294.857z M73.143,349.714
		c-10.099,0-18.286-8.187-18.286-18.286s8.187-18.286,18.286-18.286c10.099,0,18.286,8.187,18.286,18.286
		S83.242,349.714,73.143,349.714z"/>
	<circle style="fill:#C8B2A8;" cx="73.143" cy="331.429" r="18.286"/>
	<path style="fill:#DFD0C6;" d="M402.286,294.857c-20.198,0-36.572,16.374-36.572,36.571c0,20.198,16.374,36.572,36.572,36.572
		c20.198,0,36.571-16.374,36.571-36.572C438.857,311.231,422.484,294.857,402.286,294.857z M402.286,349.714
		c-10.099,0-18.286-8.187-18.286-18.286s8.187-18.286,18.286-18.286c10.099,0,18.286,8.187,18.286,18.286
		S412.385,349.714,402.286,349.714z"/>
	<circle style="fill:#C8B2A8;" cx="402.286" cy="331.429" r="18.286"/>
	<path style="fill:#F2D057;" d="M448,253.714c0,7.573,6.141,13.714,13.714,13.714H480V240h-18.286
		C454.141,240,448,246.141,448,253.714z"/>
	<path style="fill:#944851;" d="M22.857,253.714c0-7.574-6.141-13.714-13.714-13.714H0v27.428h9.143
		C16.716,267.428,22.857,261.288,22.857,253.714z"/>
	<polygon style="fill:#95FFFF;" points="338.286,203.428 406.857,203.428 338.286,134.857 	"/>
	<polygon style="fill:#95FFFF;" points="214.857,203.428 283.429,203.428 214.857,134.857 	"/>
	<path style="fill:#95FFFF;" d="M37.255,125.387c0.05-0.178,0.084-0.363,0.139-0.539C37.339,125.024,37.304,125.209,37.255,125.387z
		"/>
	<path style="fill:#95FFFF;" d="M52.334,112.194c0.827-0.115,1.665-0.194,2.523-0.194C53.999,112,53.161,112.08,52.334,112.194z"/>
	<polygon style="fill:#95FFFF;" points="91.429,203.428 160,203.428 91.429,134.857 	"/>
	<path style="fill:#95FFFF;" d="M50.393,112.572c-5.464,1.374-9.947,5.193-12.213,10.24
		C40.446,117.765,44.929,113.946,50.393,112.572z"/>
	<path style="fill:#95FFFF;" d="M36.571,185.143c0,10.099,8.187,18.286,18.286,18.286C44.759,203.428,36.571,195.241,36.571,185.143
		z"/>
	<polygon style="fill:#944851;" points="214.857,112 196.571,112 196.571,134.857 196.571,203.428 214.857,203.428 214.857,134.857 
			"/>
	<polygon style="fill:#944851;" points="338.286,112 320,112 320,134.857 320,203.428 338.286,203.428 338.286,134.857 	"/>
	<path style="fill:#944851;" d="M91.429,112H54.857c-0.859,0-1.696,0.08-2.523,0.194c-0.659,0.091-1.306,0.218-1.941,0.377
		c-5.464,1.374-9.947,5.193-12.213,10.24c-0.297,0.661-0.569,1.336-0.786,2.036c-0.055,0.176-0.089,0.361-0.139,0.539
		c-0.434,1.561-0.683,3.199-0.683,4.898v54.857c0,10.098,8.188,18.286,18.286,18.286h36.571v-68.571V112z"/>
	<polygon style="fill:#6EB1E2;" points="196.571,134.857 196.571,112 178.286,112 91.429,112 91.429,134.857 	"/>
	<rect x="214.857" y="112" style="fill:#6EB1E2;" width="105.143" height="22.857"/>
	<polygon style="fill:#6EB1E2;" points="439.993,134.857 426.663,112 338.286,112 338.286,134.857 	"/>
	<polygon style="fill:#80D7F0;" points="91.429,134.857 160,203.428 178.286,203.428 196.571,203.428 196.571,134.857 	"/>
	<polygon style="fill:#80D7F0;" points="214.857,134.857 283.429,203.428 320,203.428 320,134.857 	"/>
	<polygon style="fill:#80D7F0;" points="338.286,134.857 406.857,203.428 479.982,203.428 439.993,134.857 	"/>
</g>
<g>
</g>
<g>
</g>
<g>
</g>
<g>
</g>
<g>
</g>
<g>
</g>
<g>
</g>
<g>
</g>
<g>
</g>
<g>
</g>
<g>
</g>
<g>
</g>
<g>
</g>
<g>
</g>
<g>
</g>
</svg>
