<?xml version="1.0" encoding="iso-8859-1"?>
<!-- Generator: Adobe Illustrator 19.0.0, SVG Export Plug-In . SVG Version: 6.00 Build 0)  -->
<svg version="1.1" id="Capa_1" xmlns="http://www.w3.org/2000/svg" xmlns:xlink="http://www.w3.org/1999/xlink" x="0px" y="0px"
	 viewBox="0 0 480 480" style="enable-background:new 0 0 480 480;" xml:space="preserve">
<g>
	<path style="fill:#E9A868;" d="M240,77.79c0-1.105-0.895-2-2-2h-84.421c-1.105,0-2,0.895-2,2v48.526H240V77.79z M227.368,101.053
		h-12.632v12.631h-12.632v-12.631h-12.632v12.631h-12.632v-12.631h-12.632V88.421h12.632v12.632h12.632V88.421h12.632v12.632h12.632
		V88.421h12.632V101.053z"/>
	<rect x="63.158" y="240" style="fill:#E9A868;" width="12.632" height="12.632"/>
	<rect x="240" y="240" style="fill:#E9A868;" width="12.632" height="12.632"/>
	<rect x="164.211" y="240" style="fill:#E9A868;" width="12.632" height="12.632"/>
	<rect x="189.474" y="240" style="fill:#E9A868;" width="12.632" height="12.632"/>
	<rect x="214.737" y="240" style="fill:#E9A868;" width="12.632" height="12.632"/>
	<rect x="113.684" y="240" style="fill:#E9A868;" width="12.632" height="12.632"/>
	<rect x="88.421" y="240" style="fill:#E9A868;" width="12.632" height="12.632"/>
	<rect x="138.947" y="240" style="fill:#E9A868;" width="12.632" height="12.632"/>
	<rect x="341.053" y="240" style="fill:#E9A868;" width="12.632" height="12.632"/>
	<path style="fill:#E9A868;" d="M442.105,271.579c0-2.218,0.401-4.338,1.101-6.316h-1.101v-12.632h-12.632v12.632h-12.632v-12.632
		h-12.632v12.632h-12.632v-12.632h-12.632v12.632h-12.632v-12.632h-12.632v12.632h-12.632v-12.632h-12.632v12.632h-12.632v-12.632
		h-12.632v12.632h-12.632v-12.632h-12.632v12.632h-12.632v-12.632h-12.632v12.632H240v-12.632h-12.632v12.632h-12.632v-12.632
		h-12.632v12.632h-12.632v-12.632h-12.632v12.632h-12.632v-12.632h-12.632v12.632h-12.632v-12.632h-12.632v12.632h-12.632v-12.632
		h-12.632v12.632H88.421v-12.632H75.789v12.632H63.158v-12.632H50.526v12.632H37.895v-12.632H25.263v1.101
		c7.354,2.604,12.632,9.6,12.632,17.846c0,10.464-8.484,18.948-18.947,18.948H0v44.526c0,3.313,2.686,6,6,6h19.263
		c0-34.881,28.277-63.158,63.158-63.158c34.881,0,63.158,28.277,63.158,63.158h176.842c0-34.881,28.277-63.158,63.158-63.158
		c34.881,0,63.158,28.277,63.158,63.158H480v-50.526h-18.947C450.589,290.526,442.105,282.042,442.105,271.579z"/>
	<rect x="366.316" y="240" style="fill:#E9A868;" width="12.632" height="12.632"/>
	<rect x="391.579" y="240" style="fill:#E9A868;" width="12.632" height="12.632"/>
	<rect x="290.526" y="240" style="fill:#E9A868;" width="12.632" height="12.632"/>
	<rect x="467.368" y="240" style="fill:#E9A868;" width="12.632" height="12.632"/>
	<rect x="315.789" y="240" style="fill:#E9A868;" width="12.632" height="12.632"/>
	<rect x="37.895" y="240" style="fill:#E9A868;" width="12.632" height="12.632"/>
	<rect x="265.263" y="240" style="fill:#E9A868;" width="12.632" height="12.632"/>
	<polygon style="fill:#E9A868;" points="18.947,252.632 25.263,252.632 25.263,240 12.632,240 12.632,252.632 	"/>
	<path style="fill:#E9A868;" d="M454.737,253.733c1.978-0.7,4.098-1.101,6.316-1.101h-6.316V253.733z"/>
	<rect x="416.842" y="240" style="fill:#E9A868;" width="12.632" height="12.632"/>
	<rect x="442.105" y="240" style="fill:#E9A868;" width="12.632" height="12.632"/>
	<path style="fill:#F2D057;" d="M476,214.737H315.789H151.579H93.126H25.263H4c-2.209,0-4,1.791-4,4V240h12.632h12.632h12.632
		h12.632h12.632h12.632h12.632h12.632h12.632h12.632h12.632h12.632h12.632h12.632h12.632h12.632h12.632h12.632H240h12.632h12.632
		h12.632h12.632h12.632h12.632h12.632h12.632h12.632h12.632h12.632h12.632h12.632h12.632h12.632h12.632h12.632h12.632H480v-21.263
		C480,216.528,478.209,214.737,476,214.737z"/>
	<path style="fill:#695A69;" d="M391.579,277.895c-34.881,0-63.158,28.277-63.158,63.158c0,34.881,28.277,63.158,63.158,63.158
		c34.881,0,63.158-28.277,63.158-63.158C454.737,306.171,426.46,277.895,391.579,277.895z M391.579,391.579
		c-27.905,0-50.526-22.621-50.526-50.526c0-27.905,22.621-50.526,50.526-50.526c27.905,0,50.526,22.621,50.526,50.526
		C442.105,368.958,419.484,391.579,391.579,391.579z"/>
	<path style="fill:#DFD0C6;" d="M391.579,290.526c-27.905,0-50.526,22.621-50.526,50.526c0,27.905,22.621,50.526,50.526,50.526
		c27.905,0,50.526-22.621,50.526-50.526C442.105,313.148,419.484,290.526,391.579,290.526z M391.579,372.632
		c-17.441,0-31.579-14.138-31.579-31.579c0-17.441,14.138-31.579,31.579-31.579c17.441,0,31.579,14.138,31.579,31.579
		C423.158,358.493,409.02,372.632,391.579,372.632z"/>
	<circle style="fill:#C8B2A8;" cx="391.579" cy="341.053" r="31.579"/>
	<path style="fill:#695A69;" d="M88.421,277.895c-34.881,0-63.158,28.277-63.158,63.158c0,34.881,28.277,63.158,63.158,63.158
		c34.881,0,63.158-28.277,63.158-63.158C151.579,306.171,123.302,277.895,88.421,277.895z M88.421,391.579
		c-27.905,0-50.526-22.621-50.526-50.526c0-27.905,22.621-50.526,50.526-50.526s50.526,22.621,50.526,50.526
		C138.947,368.958,116.326,391.579,88.421,391.579z"/>
	<path style="fill:#DFD0C6;" d="M88.421,290.526c-27.905,0-50.526,22.621-50.526,50.526c0,27.905,22.621,50.526,50.526,50.526
		s50.526-22.621,50.526-50.526C138.947,313.148,116.326,290.526,88.421,290.526z M88.421,372.632
		c-17.441,0-31.579-14.138-31.579-31.579c0-17.441,14.138-31.579,31.579-31.579c17.441,0,31.579,14.138,31.579,31.579
		C120,358.493,105.862,372.632,88.421,372.632z"/>
	<circle style="fill:#C8B2A8;" cx="88.421" cy="341.053" r="31.579"/>
	<path style="fill:#E9A868;" d="M115.496,130.122c1.304-0.336,2.615-0.649,3.932-0.942
		C118.11,129.472,116.799,129.786,115.496,130.122z"/>
	<path style="fill:#E9A868;" d="M132.472,127.028c0.542-0.059,1.085-0.116,1.629-0.168
		C133.557,126.911,133.015,126.969,132.472,127.028z"/>
	<path style="fill:#E9A868;" d="M108.648,132.105c0.711-0.229,1.421-0.458,2.137-0.674
		C110.07,131.647,109.359,131.876,108.648,132.105z"/>
	<path style="fill:#E9A868;" d="M112.153,131.035c0.714-0.206,1.426-0.416,2.144-0.609
		C113.579,130.619,112.867,130.829,112.153,131.035z"/>
	<path style="fill:#E9A868;" d="M128.692,127.497c0.56-0.079,1.122-0.152,1.684-0.223
		C129.814,127.344,129.252,127.418,128.692,127.497z"/>
	<path style="fill:#E9A868;" d="M124.961,128.08c0.571-0.099,1.144-0.188,1.717-0.279
		C126.105,127.892,125.532,127.981,124.961,128.08z"/>
	<path style="fill:#E9A868;" d="M121.272,128.775c0.581-0.119,1.167-0.226,1.75-0.337
		C122.438,128.549,121.853,128.656,121.272,128.775z"/>
	<path style="fill:#E9A868;" d="M95.017,137.427c0.783-0.363,1.573-0.71,2.364-1.056C96.59,136.717,95.8,137.064,95.017,137.427z"/>
	<path style="fill:#E9A868;" d="M105.175,133.282c0.713-0.254,1.428-0.505,2.147-0.746
		C106.603,132.777,105.888,133.028,105.175,133.282z"/>
	<path style="fill:#E9A868;" d="M249.468,126.885c0.928,0.154,1.847,0.334,2.754,0.557c0.678,0.167,1.351,0.348,2.014,0.552
		c0.694,0.21,1.369,0.455,2.048,0.703c0.783,0.29,1.573,0.572,2.334,0.913c0.29,0.129,0.567,0.288,0.854,0.426
		c3.3,1.581,6.381,3.61,9.125,6.089c0,0,0.012,0.011,0.028,0.023c0.971,0.882,1.903,1.816,2.788,2.8
		c1.328,1.478,2.577,3.039,3.687,4.719c-6.951-10.772-18.914-17.351-31.827-17.351c1.542,0,3.065,0.122,4.573,0.305
		C248.391,126.688,248.928,126.794,249.468,126.885z"/>
	<path style="fill:#E9A868;" d="M101.741,134.563c0.723-0.283,1.448-0.558,2.177-0.826
		C103.189,134.005,102.464,134.281,101.741,134.563z"/>
	<path style="fill:#E9A868;" d="M98.354,135.946c0.741-0.316,1.487-0.621,2.235-0.923C99.841,135.324,99.096,135.629,98.354,135.946
		z"/>
	<path style="fill:#E9A868;" d="M136.327,126.673c0.509-0.039,1.018-0.08,1.529-0.112
		C137.345,126.593,136.836,126.635,136.327,126.673z"/>
	<polygon style="fill:#E9A868;" points="145.428,126.316 145.417,126.316 145.43,126.316 	"/>
	<path style="fill:#E9A868;" d="M80.818,199.265l0.199-0.594c4.927-14.688,13.497-27.397,24.494-37.276
		c0.104-0.094,0.211-0.183,0.315-0.276c0.88-0.783,1.777-1.548,2.688-2.294c0.207-0.17,0.415-0.337,0.623-0.505
		c0.867-0.698,1.747-1.378,2.639-2.043c0.179-0.133,0.356-0.27,0.536-0.401c2.16-1.582,4.391-3.066,6.688-4.445
		c0.179-0.108,0.362-0.21,0.542-0.316c0.946-0.559,1.903-1.1,2.871-1.624c0.286-0.155,0.573-0.307,0.861-0.458
		c0.92-0.484,1.849-0.952,2.787-1.404c0.262-0.126,0.521-0.256,0.784-0.38c2.387-1.121,4.828-2.138,7.319-3.043
		c0.291-0.106,0.586-0.203,0.879-0.306c0.943-0.331,1.892-0.648,2.848-0.948c0.384-0.12,0.769-0.237,1.154-0.352
		c0.921-0.274,1.848-0.532,2.78-0.777c0.357-0.094,0.713-0.192,1.072-0.282c2.547-0.634,5.132-1.156,7.751-1.56
		c0.387-0.06,0.777-0.109,1.165-0.163c0.931-0.131,1.865-0.25,2.803-0.351c0.455-0.049,0.91-0.094,1.366-0.136
		c0.928-0.085,1.86-0.154,2.795-0.21c0.416-0.025,0.83-0.055,1.247-0.074c1.334-0.061,2.673-0.1,4.019-0.101
		c0.001,0,0.002,0,0.003,0H91.853c0.879-0.438,1.765-0.861,2.654-1.278c-22.026,10.326-40.789,27.27-53.269,49.11l-15.976,27.958
		h67.863C85.003,214.737,78.992,207.18,80.818,199.265z"/>
	<path style="fill:#E9A868;" d="M140.348,126.436c0.428-0.018,0.855-0.043,1.284-0.057
		C141.203,126.393,140.776,126.418,140.348,126.436z"/>
	<path style="fill:#95FFFF;" d="M126.845,147.25c2.387-1.122,4.829-2.137,7.319-3.043
		C131.674,145.112,129.233,146.128,126.845,147.25z"/>
	<path style="fill:#95FFFF;" d="M160.025,139.048c1.334-0.061,2.673-0.1,4.019-0.101
		C162.698,138.948,161.36,138.987,160.025,139.048z"/>
	<path style="fill:#95FFFF;" d="M135.043,143.901c0.943-0.332,1.892-0.648,2.848-0.948
		C136.935,143.253,135.986,143.57,135.043,143.901z"/>
	<path style="fill:#95FFFF;" d="M151.814,139.819c0.931-0.131,1.865-0.25,2.803-0.351
		C153.679,139.57,152.745,139.688,151.814,139.819z"/>
	<path style="fill:#95FFFF;" d="M139.046,142.601c0.921-0.275,1.848-0.532,2.78-0.777
		C140.894,142.069,139.967,142.327,139.046,142.601z"/>
	<path style="fill:#95FFFF;" d="M123.274,149.033c0.92-0.484,1.849-0.952,2.787-1.404
		C125.123,148.082,124.194,148.549,123.274,149.033z"/>
	<path style="fill:#95FFFF;" d="M142.898,141.543c2.547-0.634,5.132-1.156,7.751-1.56
		C148.03,140.387,145.445,140.909,142.898,141.543z"/>
	<path style="fill:#95FFFF;" d="M102.518,164.21c0.976-0.963,1.975-1.9,2.993-2.815c-10.997,9.879-19.566,22.588-24.494,37.276
		l-0.199,0.594c-1.826,7.915,4.185,15.472,12.308,15.472h58.453l-49.774-49.772C102.049,164.719,102.271,164.453,102.518,164.21z"/>
	<path style="fill:#95FFFF;" d="M112.312,155.876c2.16-1.582,4.391-3.066,6.688-4.445
		C116.702,152.81,114.472,154.294,112.312,155.876z"/>
	<path style="fill:#95FFFF;" d="M109.136,158.32c0.867-0.698,1.747-1.378,2.639-2.043
		C110.883,156.942,110.003,157.622,109.136,158.32z"/>
	<path style="fill:#95FFFF;" d="M105.826,161.119c0.88-0.783,1.777-1.548,2.688-2.294
		C107.603,159.572,106.707,160.336,105.826,161.119z"/>
	<path style="fill:#95FFFF;" d="M119.542,151.115c0.946-0.559,1.903-1.1,2.871-1.624
		C121.445,150.015,120.488,150.556,119.542,151.115z"/>
	<path style="fill:#95FFFF;" d="M155.984,139.332c0.928-0.085,1.86-0.154,2.795-0.21
		C157.844,139.178,156.912,139.247,155.984,139.332z"/>
	<path style="fill:#F2D057;" d="M164.047,138.947L164.047,138.947h107.365c-0.885-0.984-1.816-1.918-2.788-2.8
		c-0.015-0.012-0.028-0.023-0.028-0.023c-2.745-2.479-5.826-4.509-9.125-6.089c-0.287-0.137-0.564-0.296-0.854-0.426
		c-0.762-0.341-1.551-0.623-2.334-0.913c-0.678-0.248-1.354-0.493-2.048-0.703c-0.663-0.204-1.335-0.385-2.014-0.552
		c-0.907-0.222-1.826-0.402-2.754-0.557c-0.54-0.091-1.076-0.197-1.622-0.264c-1.508-0.184-3.031-0.305-4.573-0.305H240h-88.421
		h-6.149c-0.004,0-0.008,0-0.012,0c-1.265,0-2.526,0.023-3.785,0.063c-0.429,0.013-0.856,0.039-1.284,0.057
		c-0.832,0.035-1.663,0.073-2.492,0.125c-0.51,0.032-1.019,0.074-1.529,0.112c-0.743,0.057-1.485,0.116-2.226,0.186
		c-0.544,0.052-1.087,0.109-1.629,0.168c-0.7,0.076-1.399,0.157-2.097,0.246c-0.562,0.071-1.123,0.145-1.684,0.223
		c-0.673,0.095-1.344,0.198-2.014,0.304c-0.573,0.091-1.147,0.18-1.717,0.279c-0.648,0.112-1.293,0.236-1.938,0.359
		c-0.584,0.111-1.169,0.217-1.75,0.337c-0.617,0.127-1.23,0.268-1.844,0.405c-1.317,0.293-2.628,0.606-3.932,0.942
		c-0.399,0.103-0.8,0.198-1.198,0.304c-0.718,0.193-1.431,0.403-2.144,0.609c-0.456,0.132-0.914,0.259-1.368,0.396
		c-0.716,0.216-1.426,0.445-2.137,0.674c-0.443,0.143-0.886,0.283-1.326,0.431c-0.719,0.241-1.434,0.491-2.147,0.746
		c-0.42,0.15-0.839,0.3-1.257,0.455c-0.728,0.269-1.454,0.544-2.177,0.826c-0.385,0.151-0.768,0.305-1.152,0.459
		c-0.748,0.302-1.494,0.606-2.235,0.923c-0.326,0.139-0.649,0.284-0.974,0.426c-0.791,0.346-1.581,0.693-2.364,1.056
		c-0.171,0.079-0.339,0.163-0.509,0.242c-0.889,0.417-1.776,0.839-2.654,1.278H164.047z"/>
	<path style="fill:#6EB1E2;" d="M164.048,138.947L164.048,138.947c-0.002,0-0.003,0-0.004,0c-1.346,0-2.684,0.04-4.019,0.101
		c-0.417,0.019-0.831,0.05-1.247,0.074c-0.935,0.056-1.867,0.124-2.795,0.21c-0.456,0.042-0.912,0.087-1.366,0.136
		c-0.938,0.102-1.872,0.22-2.803,0.351c-0.388,0.055-0.778,0.104-1.165,0.163c-2.618,0.405-5.204,0.926-7.751,1.56
		c-0.359,0.089-0.715,0.188-1.072,0.282c-0.932,0.245-1.859,0.502-2.78,0.777c-0.386,0.115-0.771,0.232-1.154,0.352
		c-0.956,0.3-1.905,0.616-2.848,0.948c-0.293,0.103-0.587,0.2-0.879,0.306c-2.49,0.905-4.932,1.921-7.319,3.043
		c-0.263,0.124-0.523,0.254-0.784,0.38c-0.938,0.452-1.867,0.919-2.787,1.404c-0.288,0.152-0.575,0.304-0.861,0.458
		c-0.967,0.523-1.924,1.065-2.871,1.624c-0.18,0.106-0.363,0.208-0.542,0.316c-2.297,1.379-4.528,2.863-6.688,4.445
		c-0.18,0.132-0.357,0.268-0.536,0.401c-0.892,0.664-1.772,1.345-2.639,2.043c-0.208,0.168-0.416,0.335-0.623,0.505
		c-0.911,0.747-1.807,1.511-2.688,2.294c-0.104,0.093-0.211,0.183-0.315,0.276c-1.018,0.915-2.018,1.852-2.993,2.815h184.401
		l-10.744-18.801c-0.341-0.596-0.7-1.176-1.075-1.743c-1.11-1.68-2.359-3.241-3.687-4.719H164.048z"/>
	<path style="fill:#80D7F0;" d="M102.518,164.21c-0.247,0.242-0.469,0.509-0.712,0.754l49.774,49.772h164.211l-28.871-50.526
		H102.518z"/>
	<rect x="164.211" y="88.421" style="fill:#695A69;" width="12.632" height="12.632"/>
	<rect x="176.842" y="101.053" style="fill:#695A69;" width="12.632" height="12.631"/>
	<rect x="189.474" y="88.421" style="fill:#695A69;" width="12.632" height="12.632"/>
	<rect x="214.737" y="88.421" style="fill:#695A69;" width="12.632" height="12.632"/>
	<rect x="202.105" y="101.053" style="fill:#695A69;" width="12.632" height="12.631"/>
	<rect y="240" style="fill:#695A69;" width="12.632" height="12.632"/>
	<path style="fill:#695A69;" d="M25.263,253.733v-1.101h-6.316C21.165,252.632,23.285,253.032,25.263,253.733z"/>
	<rect x="25.263" y="240" style="fill:#695A69;" width="12.632" height="12.632"/>
	<rect x="50.526" y="240" style="fill:#695A69;" width="12.632" height="12.632"/>
	<rect x="37.895" y="252.632" style="fill:#695A69;" width="12.632" height="12.632"/>
	<rect x="63.158" y="252.632" style="fill:#695A69;" width="12.632" height="12.632"/>
	<rect x="75.789" y="240" style="fill:#695A69;" width="12.632" height="12.632"/>
	<rect x="88.421" y="252.632" style="fill:#695A69;" width="12.632" height="12.632"/>
	<rect x="101.053" y="240" style="fill:#695A69;" width="12.632" height="12.632"/>
	<rect x="126.316" y="240" style="fill:#695A69;" width="12.632" height="12.632"/>
	<rect x="113.684" y="252.632" style="fill:#695A69;" width="12.632" height="12.632"/>
	<rect x="138.947" y="252.632" style="fill:#695A69;" width="12.632" height="12.632"/>
	<rect x="151.579" y="240" style="fill:#695A69;" width="12.632" height="12.632"/>
	<rect x="164.211" y="252.632" style="fill:#695A69;" width="12.632" height="12.632"/>
	<rect x="176.842" y="240" style="fill:#695A69;" width="12.632" height="12.632"/>
	<rect x="202.105" y="240" style="fill:#695A69;" width="12.632" height="12.632"/>
	<rect x="189.474" y="252.632" style="fill:#695A69;" width="12.632" height="12.632"/>
	<rect x="214.737" y="252.632" style="fill:#695A69;" width="12.632" height="12.632"/>
	<rect x="227.368" y="240" style="fill:#695A69;" width="12.632" height="12.632"/>
	<rect x="240" y="252.632" style="fill:#695A69;" width="12.632" height="12.632"/>
	<rect x="252.632" y="240" style="fill:#695A69;" width="12.632" height="12.632"/>
	<rect x="277.895" y="240" style="fill:#695A69;" width="12.632" height="12.632"/>
	<rect x="265.263" y="252.632" style="fill:#695A69;" width="12.632" height="12.632"/>
	<rect x="290.526" y="252.632" style="fill:#695A69;" width="12.632" height="12.632"/>
	<rect x="303.158" y="240" style="fill:#695A69;" width="12.632" height="12.632"/>
	<rect x="315.789" y="252.632" style="fill:#695A69;" width="12.632" height="12.632"/>
	<rect x="328.421" y="240" style="fill:#695A69;" width="12.632" height="12.632"/>
	<rect x="353.684" y="240" style="fill:#695A69;" width="12.632" height="12.632"/>
	<rect x="341.053" y="252.632" style="fill:#695A69;" width="12.632" height="12.632"/>
	<rect x="366.316" y="252.632" style="fill:#695A69;" width="12.632" height="12.632"/>
	<rect x="378.947" y="240" style="fill:#695A69;" width="12.632" height="12.632"/>
	<rect x="391.579" y="252.632" style="fill:#695A69;" width="12.632" height="12.632"/>
	<rect x="404.211" y="240" style="fill:#695A69;" width="12.632" height="12.632"/>
	<rect x="429.474" y="240" style="fill:#695A69;" width="12.632" height="12.632"/>
	<rect x="416.842" y="252.632" style="fill:#695A69;" width="12.632" height="12.632"/>
	<path style="fill:#695A69;" d="M442.105,252.632v12.632h1.101c1.904-5.376,6.154-9.626,11.53-11.53v-1.101H442.105z"/>
	<polygon style="fill:#695A69;" points="461.053,252.632 467.368,252.632 467.368,240 454.737,240 454.737,252.632 	"/>
	<path style="fill:#F2D057;" d="M461.053,252.632c-2.218,0-4.338,0.401-6.316,1.101c-5.376,1.904-9.627,6.155-11.53,11.53
		c-0.7,1.978-1.101,4.098-1.101,6.316c0,10.464,8.484,18.948,18.947,18.948H480v-25.263v-12.632h-12.632H461.053z"/>
	<path style="fill:#BF515A;" d="M37.895,271.579c0-8.246-5.278-15.242-12.632-17.846c-1.978-0.7-4.098-1.101-6.316-1.101h-6.316H0
		v37.895h18.947C29.411,290.526,37.895,282.042,37.895,271.579z"/>
</g>
<g>
</g>
<g>
</g>
<g>
</g>
<g>
</g>
<g>
</g>
<g>
</g>
<g>
</g>
<g>
</g>
<g>
</g>
<g>
</g>
<g>
</g>
<g>
</g>
<g>
</g>
<g>
</g>
<g>
</g>
</svg>
